<svg width="42" xmlns="http://www.w3.org/2000/svg" height="30" id="hamburger-menu"
     viewBox="760 1312 42 30"
     fill="none">
    <g id="shape-0953e374-dd61-808b-8004-bc31ecf7e343">
        <g class="fills" id="fills-0953e374-dd61-808b-8004-bc31ecf7e343">
            <path d="M763.000,1318.000L799.000,1318.000C800.656,1318.000,802.000,1316.656,802.000,1315.000C802.000,1313.344,800.656,1312.000,799.000,1312.000L763.000,1312.000C761.344,1312.000,760.000,1313.344,760.000,1315.000C760.000,1316.656,761.344,1318.000,763.000,1318.000ZZM799.000,1324.000L763.000,1324.000C761.344,1324.000,760.000,1325.344,760.000,1327.000C760.000,1328.656,761.344,1330.000,763.000,1330.000L799.000,1330.000C800.656,1330.000,802.000,1328.656,802.000,1327.000C802.000,1325.344,800.656,1324.000,799.000,1324.000ZZM799.000,1336.000L763.000,1336.000C761.344,1336.000,760.000,1337.344,760.000,1339.000C760.000,1340.656,761.344,1342.000,763.000,1342.000L799.000,1342.000C800.656,1342.000,802.000,1340.656,802.000,1339.000C802.000,1337.344,800.656,1336.000,799.000,1336.000ZZ"
                  style="enable-background:new 0 0 32 32;fill:#ffffff;fill-opacity:1"/>
        </g>
    </g>
</svg>